{
  "accessors": [
    {
      "bufferView": 2,
      "componentType": 5126,
      "count": 65532,
      "max": [
        4.542689800262451,
        3.2481515407562256,
        5.077265739440918
      ],
      "min": [
        -4.544785499572754,
        -4.0716071128845215,
        -9.184009552001953
      ],
      "type": "VEC3"
    },
    {
      "bufferView": 2,
      "byteOffset": 786384,
      "componentType": 5126,
      "count": 65532,
      "max": [
        0.9999980926513672,
        1.0,
        0.9999849796295166
      ],
      "min": [
        -0.9999822378158569,
        -0.9999799728393555,
        -0.9999955892562866
      ],
      "type": "VEC3"
    },
    {
      "bufferView": 3,
      "componentType": 5126,
      "count": 65532,
      "max": [
        0.9999872446060181,
        0.9998779892921448,
        0.9999840259552002,
        1.0
      ],
      "min": [
        -0.9997631907463074,
        -0.9999569654464722,
        -0.9999616742134094,
        -1.0
      ],
      "type": "VEC4"
    },
    {
      "bufferView": 1,
      "componentType": 5126,
      "count": 65532,
      "max": [
        0.9942200183868408,
        0.9980400204658508
      ],
      "min": [
        0.011389999650418758,
        0.09296000003814697
      ],
      "type": "VEC2"
    },
    {
      "bufferView": 0,
      "componentType": 5125,
      "count": 316476,
      "type": "SCALAR"
    },
    {
      "bufferView": 2,
      "byteOffset": 1572768,
      "componentType": 5126,
      "count": 65532,
      "max": [
        4.544785499572754,
        3.2481517791748047,
        5.242740154266357
      ],
      "min": [
        -4.454206466674805,
        -4.458635330200195,
        -9.134801864624023
      ],
      "type": "VEC3"
    },
    {
      "bufferView": 2,
      "byteOffset": 2359152,
      "componentType": 5126,
      "count": 65532,
      "max": [
        0.9999588131904602,
        0.9999994039535522,
        0.9999513030052185
      ],
      "min": [
        -0.9999682307243347,
        -0.9999905824661255,
        -0.9999178647994995
      ],
      "type": "VEC3"
    },
    {
      "bufferView": 3,
      "byteOffset": 1048512,
      "componentType": 5126,
      "count": 65532,
      "max": [
        0.999991774559021,
        0.9999339580535889,
        0.9999799728393555,
        1.0
      ],
      "min": [
        -0.9999211430549622,
        -0.9999768733978271,
        -0.9999942779541016,
        -1.0
      ],
      "type": "VEC4"
    },
    {
      "bufferView": 1,
      "byteOffset": 524256,
      "componentType": 5126,
      "count": 65532,
      "max": [
        0.9771599769592285,
        0.9841300249099731
      ],
      "min": [
        0.006399999838322401,
        0.0037499999161809683
      ],
      "type": "VEC2"
    },
    {
      "bufferView": 0,
      "byteOffset": 1265904,
      "componentType": 5125,
      "count": 315411,
      "type": "SCALAR"
    },
    {
      "bufferView": 2,
      "byteOffset": 3145536,
      "componentType": 5126,
      "count": 65532,
      "max": [
        4.5518293380737305,
        3.2481515407562256,
        5.242739677429199
      ],
      "min": [
        -4.5518293380737305,
        -4.45823860168457,
        -9.162246704101563
      ],
      "type": "VEC3"
    },
    {
      "bufferView": 2,
      "byteOffset": 3931920,
      "componentType": 5126,
      "count": 65532,
      "max": [
        0.9999956488609314,
        0.9999994039535522,
        0.9999993443489075
      ],
      "min": [
        -0.9999971389770508,
        -0.9999973773956299,
        -0.9999922513961792
      ],
      "type": "VEC3"
    },
    {
      "bufferView": 3,
      "byteOffset": 2097024,
      "componentType": 5126,
      "count": 65532,
      "max": [
        1.0,
        0.9999398589134216,
        0.9998934864997864,
        1.0
      ],
      "min": [
        -0.9999157190322876,
        -0.9999855756759644,
        -0.9999181032180786,
        -1.0
      ],
      "type": "VEC4"
    },
    {
      "bufferView": 1,
      "byteOffset": 1048512,
      "componentType": 5126,
      "count": 65532,
      "max": [
        0.9870100021362305,
        0.9951500296592712
      ],
      "min": [
        0.0019499999471008778,
        0.0019499999471008778
      ],
      "type": "VEC2"
    },
    {
      "bufferView": 0,
      "byteOffset": 2527548,
      "componentType": 5125,
      "count": 311634,
      "type": "SCALAR"
    },
    {
      "bufferView": 2,
      "byteOffset": 4718304,
      "componentType": 5126,
      "count": 65532,
      "max": [
        4.5518293380737305,
        3.2481515407562256,
        5.241672515869141
      ],
      "min": [
        -4.5518293380737305,
        -4.4530839920043945,
        -9.170090675354004
      ],
      "type": "VEC3"
    },
    {
      "bufferView": 2,
      "byteOffset": 5504688,
      "componentType": 5126,
      "count": 65532,
      "max": [
        0.9999681115150452,
        0.9999978542327881,
        0.9999993443489075
      ],
      "min": [
        -0.9999979734420776,
        -0.9999942183494568,
        -0.9999611377716064
      ],
      "type": "VEC3"
    },
    {
      "bufferView": 3,
      "byteOffset": 3145536,
      "componentType": 5126,
      "count": 65532,
      "max": [
        0.9999968409538269,
        0.9997268319129944,
        0.9999460577964783,
        1.0
      ],
      "min": [
        -0.9999358654022217,
        -0.9999768733978271,
        -0.9999781847000122,
        -1.0
      ],
      "type": "VEC4"
    },
    {
      "bufferView": 1,
      "byteOffset": 1572768,
      "componentType": 5126,
      "count": 65532,
      "max": [
        0.9918299913406372,
        0.9978100061416626
      ],
      "min": [
        0.003659999929368496,
        0.004819999914616346
      ],
      "type": "VEC2"
    },
    {
      "bufferView": 0,
      "byteOffset": 3774084,
      "componentType": 5125,
      "count": 224181,
      "type": "SCALAR"
    },
    {
      "bufferView": 2,
      "byteOffset": 6291072,
      "componentType": 5126,
      "count": 8446,
      "max": [
        4.547158718109131,
        3.2299296855926514,
        5.242739677429199
      ],
      "min": [
        -4.547158718109131,
        -4.455318927764893,
        -9.175272941589355
      ],
      "type": "VEC3"
    },
    {
      "bufferView": 2,
      "byteOffset": 6392424,
      "componentType": 5126,
      "count": 8446,
      "max": [
        0.9999411702156067,
        0.9997817873954773,
        0.999697744846344
      ],
      "min": [
        -0.9999411702156067,
        -0.9999604821205139,
        -0.9996331334114075
      ],
      "type": "VEC3"
    },
    {
      "bufferView": 3,
      "byteOffset": 4194048,
      "componentType": 5126,
      "count": 8446,
      "max": [
        0.9999027848243713,
        0.9992574453353882,
        0.9999799728393555,
        1.0
      ],
      "min": [
        -0.9987685680389404,
        -0.9999569654464722,
        -0.9996442198753357,
        -1.0
      ],
      "type": "VEC4"
    },
    {
      "bufferView": 1,
      "byteOffset": 2097024,
      "componentType": 5126,
      "count": 8446,
      "max": [
        0.9941700100898743,
        0.9951500296592712
      ],
      "min": [
        0.0028800000436604023,
        0.005270000081509352
      ],
      "type": "VEC2"
    },
    {
      "bufferView": 0,
      "byteOffset": 4670808,
      "componentType": 5125,
      "count": 11718,
      "type": "SCALAR"
    }
  ],
  "asset": {
    "extras": {
      "author": "Baptiste Lonqueu (https://sketchfab.com/Bapts)",
      "license": "CC-BY-4.0 (http://creativecommons.org/licenses/by/4.0/)",
      "source": "https://sketchfab.com/3d-models/bronze-idole-05a5725b04064c4e821dca99f0cc570c",
      "title": "Bronze Idole"
    },
    "generator": "Sketchfab-12.66.0",
    "version": "2.0"
  },
  "bufferViews": [
    {
      "buffer": 0,
      "byteLength": 4717680,
      "name": "floatBufferViews",
      "target": 34963
    },
    {
      "buffer": 0,
      "byteLength": 2164592,
      "byteOffset": 4717680,
      "byteStride": 8,
      "name": "floatBufferViews",
      "target": 34962
    },
    {
      "buffer": 0,
      "byteLength": 6493776,
      "byteOffset": 6882272,
      "byteStride": 12,
      "name": "floatBufferViews",
      "target": 34962
    },
    {
      "buffer": 0,
      "byteLength": 4329184,
      "byteOffset": 13376048,
      "byteStride": 16,
      "name": "floatBufferViews",
      "target": 34962
    }
  ],
  "buffers": [
    {
      "byteLength": 17705232,
      "uri": "scene.bin"
    }
  ],
  "images": [
    {
      "uri": "textures/defaultMat_baseColor.png"
    },
    {
      "uri": "textures/defaultMat_metallicRoughness.png"
    },
    {
      "uri": "textures/defaultMat_normal.png"
    }
  ],
  "materials": [
    {
      "doubleSided": true,
      "name": "defaultMat",
      "normalTexture": {
        "index": 2
      },
      "occlusionTexture": {
        "index": 1
      },
      "pbrMetallicRoughness": {
        "baseColorTexture": {
          "index": 0
        },
        "metallicRoughnessTexture": {
          "index": 1
        }
      }
    }
  ],
  "meshes": [
    {
      "name": "Object_0",
      "primitives": [
        {
          "attributes": {
            "NORMAL": 1,
            "POSITION": 0,
            "TANGENT": 2,
            "TEXCOORD_0": 3
          },
          "indices": 4,
          "material": 0,
          "mode": 4
        }
      ]
    },
    {
      "name": "Object_1",
      "primitives": [
        {
          "attributes": {
            "NORMAL": 6,
            "POSITION": 5,
            "TANGENT": 7,
            "TEXCOORD_0": 8
          },
          "indices": 9,
          "material": 0,
          "mode": 4
        }
      ]
    },
    {
      "name": "Object_2",
      "primitives": [
        {
          "attributes": {
            "NORMAL": 11,
            "POSITION": 10,
            "TANGENT": 12,
            "TEXCOORD_0": 13
          },
          "indices": 14,
          "material": 0,
          "mode": 4
        }
      ]
    },
    {
      "name": "Object_3",
      "primitives": [
        {
          "attributes": {
            "NORMAL": 16,
            "POSITION": 15,
            "TANGENT": 17,
            "TEXCOORD_0": 18
          },
          "indices": 19,
          "material": 0,
          "mode": 4
        }
      ]
    },
    {
      "name": "Object_4",
      "primitives": [
        {
          "attributes": {
            "NORMAL": 21,
            "POSITION": 20,
            "TANGENT": 22,
            "TEXCOORD_0": 23
          },
          "indices": 24,
          "material": 0,
          "mode": 4
        }
      ]
    }
  ],
  "nodes": [
    {
      "children": [
        1
      ],
      "matrix": [
        -0.04343055561184883,
        -7.179413655646901e-22,
        3.2333204664278367e-06,
        0.0,
        3.2333204664278367e-06,
        -2.6593546618037885e-18,
        0.04343055561184883,
        0.0,
        -5.199575880129917e-22,
        0.04343055561184883,
        2.6593546618037885e-18,
        0.0,
        4.076747063663788e-05,
        -2.687809183392082e-16,
        1.2104816436767578,
        1.0
      ],
      "name": "Sketchfab_model"
    },
    {
      "children": [
        2,
        3,
        4,
        5,
        6
      ],
      "name": "Low_Decimate.OBJ.cleaner.materialmerger.gles"
    },
    {
      "mesh": 0,
      "name": "Object_2"
    },
    {
      "mesh": 1,
      "name": "Object_3"
    },
    {
      "mesh": 2,
      "name": "Object_4"
    },
    {
      "mesh": 3,
      "name": "Object_5"
    },
    {
      "mesh": 4,
      "name": "Object_6"
    }
  ],
  "samplers": [
    {
      "magFilter": 9729,
      "minFilter": 9987,
      "wrapS": 10497,
      "wrapT": 10497
    }
  ],
  "scene": 0,
  "scenes": [
    {
      "name": "Sketchfab_Scene",
      "nodes": [
        0
      ]
    }
  ],
  "textures": [
    {
      "sampler": 0,
      "source": 0
    },
    {
      "sampler": 0,
      "source": 1
    },
    {
      "sampler": 0,
      "source": 2
    }
  ]
}
